<svg width="24" height="24" viewBox="0 0 24 24" fill="none" xmlns="http://www.w3.org/2000/svg">
<g clip-path="url(#clip0_86_2071)">
<path fill-rule="evenodd" clip-rule="evenodd" d="M12 22.5C14.7848 22.5 17.4555 21.3938 19.4246 19.4246C21.3938 17.4555 22.5 14.7848 22.5 12C22.5 9.21523 21.3938 6.54451 19.4246 4.57538C17.4555 2.60625 14.7848 1.5 12 1.5C9.21523 1.5 6.54451 2.60625 4.57538 4.57538C2.60625 6.54451 1.5 9.21523 1.5 12C1.5 14.7848 2.60625 17.4555 4.57538 19.4246C6.54451 21.3938 9.21523 22.5 12 22.5ZM12 24C15.1826 24 18.2348 22.7357 20.4853 20.4853C22.7357 18.2348 24 15.1826 24 12C24 8.8174 22.7357 5.76516 20.4853 3.51472C18.2348 1.26428 15.1826 0 12 0C8.8174 0 5.76516 1.26428 3.51472 3.51472C1.26428 5.76516 0 8.8174 0 12C0 15.1826 1.26428 18.2348 3.51472 20.4853C5.76516 22.7357 8.8174 24 12 24Z" fill="white"/>
<path fill-rule="evenodd" clip-rule="evenodd" d="M17.9999 12.0002C17.9999 12.1991 17.9209 12.3899 17.7802 12.5305C17.6396 12.6712 17.4488 12.7502 17.2499 12.7502H8.56038L11.7809 15.9692C11.8506 16.0389 11.9059 16.1217 11.9437 16.2128C11.9814 16.3039 12.0008 16.4016 12.0008 16.5002C12.0008 16.5988 11.9814 16.6965 11.9437 16.7876C11.9059 16.8787 11.8506 16.9615 11.7809 17.0312C11.7111 17.1009 11.6284 17.1563 11.5373 17.194C11.4461 17.2317 11.3485 17.2512 11.2499 17.2512C11.1513 17.2512 11.0536 17.2317 10.9625 17.194C10.8714 17.1563 10.7886 17.1009 10.7189 17.0312L6.21888 12.5312C6.14903 12.4615 6.09362 12.3788 6.05581 12.2877C6.018 12.1965 5.99854 12.0989 5.99854 12.0002C5.99854 11.9016 6.018 11.8039 6.05581 11.7128C6.09362 11.6216 6.14903 11.5389 6.21888 11.4692L10.7189 6.96922C10.8597 6.82839 11.0507 6.74927 11.2499 6.74927C11.449 6.74927 11.64 6.82839 11.7809 6.96922C11.9217 7.11005 12.0008 7.30105 12.0008 7.50022C12.0008 7.69938 11.9217 7.89039 11.7809 8.03122L8.56038 11.2502H17.2499C17.4488 11.2502 17.6396 11.3292 17.7802 11.4699C17.9209 11.6105 17.9999 11.8013 17.9999 12.0002Z" fill="white"/>
</g>
<defs>
<clipPath id="clip0_86_2071">
<rect width="24" height="24" fill="white"/>
</clipPath>
</defs>
</svg>
