<svg width="20" height="20" viewBox="0 0 20 20" fill="none" xmlns="http://www.w3.org/2000/svg">
<path d="M17.5001 5.11502V15.1725C17.5001 15.4011 17.4105 15.6204 17.2511 15.7821C17.0917 15.9437 16.8755 16.0346 16.6501 16.0346H14.6667V7.12652C14.6665 7.08893 14.6589 7.05177 14.6443 7.01723C14.6297 6.98268 14.6084 6.95145 14.5817 6.92537L11.1817 3.47709C11.156 3.45003 11.1252 3.42846 11.0912 3.41365C11.0571 3.39885 11.0205 3.3911 10.9834 3.39089H6.7334V2.52882C6.7334 2.30018 6.82295 2.08091 6.98236 1.91924C7.14176 1.75757 7.35796 1.66675 7.5834 1.66675H14.1001V3.67824C14.1001 4.0593 14.2493 4.42475 14.515 4.6942C14.7807 4.96365 15.141 5.11502 15.5167 5.11502H17.5001Z" fill="#6A59FF"/>
<path d="M17.0976 4.54022H15.5166C15.2912 4.54022 15.075 4.4494 14.9156 4.28773C14.7562 4.12606 14.6666 3.90679 14.6666 3.67816V2.07471L17.0976 4.54022Z" fill="#6A59FF"/>
<path d="M14.1 7.41385V17.4713C14.1 17.7 14.0105 17.9192 13.8511 18.0809C13.6917 18.2426 13.4755 18.3334 13.25 18.3334H4.18337C3.95794 18.3334 3.74174 18.2426 3.58233 18.0809C3.42293 17.9192 3.33337 17.7 3.33337 17.4713V4.82765C3.33337 4.59901 3.42293 4.37974 3.58233 4.21807C3.74174 4.0564 3.95794 3.96558 4.18337 3.96558H10.7V5.97707C10.7 6.16575 10.7367 6.35258 10.8079 6.5269C10.8791 6.70122 10.9834 6.85961 11.115 6.99303C11.3806 7.26248 11.741 7.41385 12.1167 7.41385H14.1Z" fill="#6A59FF"/>
<path d="M13.6977 6.83905H12.1167C11.8913 6.83905 11.6751 6.74823 11.5157 6.58656C11.3563 6.42489 11.2667 6.20562 11.2667 5.97698V4.37354L13.6977 6.83905Z" fill="#6A59FF"/>
</svg>
