<svg width="96" height="96" viewBox="0 0 96 96" fill="none" xmlns="http://www.w3.org/2000/svg">
<path d="M21.8567 0H74.2375C86.2022 0 96 9.79784 96 21.8567V74.2375C96 86.2022 86.2022 96 74.2375 96H21.8567C9.79784 96 0 86.2022 0 74.2375V21.8567C0 9.79784 9.79784 0 21.8567 0ZM48.0471 60.0118C51.6271 60.0118 54.5476 62.9323 54.5476 66.6065C54.5476 70.1865 51.6271 73.107 48.0471 73.107C44.3729 73.107 41.4524 70.1865 41.4524 66.6065C41.4524 62.9323 44.3729 60.0118 48.0471 60.0118ZM48.0471 53.5113C45.5976 53.5113 43.9019 51.4387 43.6192 49.0834L41.4524 29.4877C41.0756 26.0962 44.6555 22.893 48.0471 22.893C51.3445 22.893 54.9244 26.0962 54.5476 29.4877L52.3808 49.0834C52.0981 51.4387 50.4966 53.5113 48.0471 53.5113ZM74.2375 8.76153H21.8567C14.6026 8.76153 8.76153 14.6026 8.76153 21.8567V74.2375C8.76153 81.3974 14.6026 87.3327 21.8567 87.3327H74.2375C81.3974 87.3327 87.3327 81.3974 87.3327 74.2375V21.8567C87.3327 14.6026 81.3974 8.76153 74.2375 8.76153Z" fill="#FFB359"/>
</svg>
