<svg width="43" height="48" viewBox="0 0 43 48" fill="none" xmlns="http://www.w3.org/2000/svg">
<path fill-rule="evenodd" clip-rule="evenodd" d="M38.5938 13.28C41.3543 16.9067 43 21.44 43 26.4C43 38.3467 33.3914 48 21.5 48C9.60864 48 0 38.3467 0 26.4C0 15.0933 8.65309 5.76 19.6951 4.85333V3.57333H16.7222C15.7136 3.57333 14.9173 2.77333 14.9173 1.76C14.9173 0.746667 15.7136 0 16.7222 0H26.2778C27.2864 0 28.0827 0.8 28.0827 1.81333C28.0827 2.82667 27.2864 3.62667 26.2778 3.62667H23.3049V4.90667C26.5963 5.17333 29.7284 6.18667 32.4358 7.78667L33.179 6.88C34.0284 5.86667 35.5148 5.76 36.4704 6.56L39.1778 8.85333C40.1864 9.70667 40.2926 11.2 39.4432 12.2133L38.5938 13.28ZM21.5 7.2C10.9358 7.2 2.38889 15.7867 2.38889 26.4C2.38889 37.0133 10.9358 45.6 21.5 45.6C32.0642 45.6 40.6111 37.0133 40.6111 26.4C40.6111 15.7867 32.0642 7.2 21.5 7.2ZM21.5 43.2C12.263 43.2 4.77778 35.68 4.77778 26.4C4.77778 17.12 12.263 9.6 21.5 9.6C30.737 9.6 38.2222 17.12 38.2222 26.4C38.2222 35.68 30.737 43.2 21.5 43.2ZM29.516 18.3467C29.0383 17.8667 28.2951 17.8667 27.8173 18.3467L23.4642 22.72C22.8802 22.4 22.1901 22.24 21.5 22.24C19.1642 22.24 17.3062 24.1067 17.3062 26.4533C17.3062 28.8 19.1642 30.6667 21.5 30.6667C23.8358 30.6667 25.6938 28.8 25.6938 26.4533C25.6938 25.7067 25.5346 25.0667 25.163 24.4267L29.463 20.1067C29.9938 19.5733 29.9938 18.8267 29.516 18.3467Z" fill="#858BBB"/>
</svg>
